HIERARCHY
ROOT Hips
{
 OFFSET 0.000000 0.000000 0.000000
 CHANNELS 6 Xposition Yposition Zposition Yrotation Xrotation Zrotation
 JOINT Chest
 {
  OFFSET 0.000000 9.585900 0.002600
  CHANNELS 3 Yrotation Xrotation Zrotation
  JOINT Chest2
  {
   OFFSET 0.000000 9.601200 -0.005300
   CHANNELS 3 Yrotation Xrotation Zrotation
   JOINT Chest3
   {
    OFFSET 0.000000 9.561800 0.000000
    CHANNELS 3 Yrotation Xrotation Zrotation
    JOINT Chest4
    {
     OFFSET 0.000000 9.552100 0.000000
     CHANNELS 3 Yrotation Xrotation Zrotation
     JOINT Neck
     {
      OFFSET 0.000000 14.453000 0.000000
      CHANNELS 3 Yrotation Xrotation Zrotation
      JOINT Head
      {
       OFFSET 0.000000 8.936500 -0.011300
       CHANNELS 3 Yrotation Xrotation Zrotation
       End Site
       {
        OFFSET 0.000000 17.073600 -0.006000
       }
      }
     }
     JOINT RightCollar
     {
      OFFSET -2.921100 9.558500 0.000000
      CHANNELS 3 Yrotation Xrotation Zrotation
      JOINT RightShoulder
      {
       OFFSET -13.519700 0.000000 0.000000
       CHANNELS 3 Yrotation Xrotation Zrotation
       JOINT RightElbow
       {
        OFFSET 0.000000 -29.696600 0.000000
        CHANNELS 3 Yrotation Xrotation Zrotation
        JOINT RightWrist
        {
         OFFSET 0.000000 -24.004700 0.000000
         CHANNELS 3 Yrotation Xrotation Zrotation
         End Site
         {
          OFFSET 0.000000 -17.728500 0.000000
         }
        }
       }
      }
     }
     JOINT LeftCollar
     {
      OFFSET 2.921100 9.558500 0.000000
      CHANNELS 3 Yrotation Xrotation Zrotation
      JOINT LeftShoulder
      {
       OFFSET 13.519700 0.000000 0.000000
       CHANNELS 3 Yrotation Xrotation Zrotation
       JOINT LeftElbow
       {
        OFFSET 0.000000 -29.696600 0.000000
        CHANNELS 3 Yrotation Xrotation Zrotation
        JOINT LeftWrist
        {
         OFFSET 0.000000 -24.004700 0.000000
         CHANNELS 3 Yrotation Xrotation Zrotation
         End Site
         {
          OFFSET 0.000000 -17.728500 0.000000
         }
        }
       }
      }
     }
    }
   }
  }
 }
 JOINT RightHip
 {
  OFFSET -7.771700 -0.012900 -0.001300
  CHANNELS 3 Yrotation Xrotation Zrotation
  JOINT RightKnee
  {
   OFFSET 0.000000 -40.869800 0.001200
   CHANNELS 3 Yrotation Xrotation Zrotation
   JOINT RightAnkle
   {
    OFFSET 0.000000 -39.717900 0.002100
    CHANNELS 3 Yrotation Xrotation Zrotation
    JOINT RightToe
    {
     OFFSET 0.000000 -4.965400 11.033500
     CHANNELS 3 Yrotation Xrotation Zrotation
     End Site
     {
      OFFSET 0.000000 -1.423100 5.872300
     }
    }
   }
  }
 }
 JOINT LeftHip
 {
  OFFSET 7.771700 -0.012900 -0.001300
  CHANNELS 3 Yrotation Xrotation Zrotation
  JOINT LeftKnee
  {
   OFFSET 0.000000 -40.869800 0.001200
   CHANNELS 3 Yrotation Xrotation Zrotation
   JOINT LeftAnkle
   {
    OFFSET 0.000000 -39.717900 0.002100
    CHANNELS 3 Yrotation Xrotation Zrotation
    JOINT LeftToe
    {
     OFFSET 0.000000 -4.965400 11.033500
     CHANNELS 3 Yrotation Xrotation Zrotation
     End Site
     {
      OFFSET 0.000000 -1.423100 5.872300
     }
    }
   }
  }
 }
}
MOTION
Frames: 14
Frame Time: 0.008333
0.000000 85.388000 0.000000 0.000000 -5.767877 0.000000 0.000000 11.653817 0.000000 0.000000 -5.885947 0.000000 0.000000 -0.000000 0.000000 0.000000 -0.000000 0.000000 0.000000 12.528835 0.000000 0.000000 0.711642 0.000000 0.000000 -0.000000 0.000000 0.000000 0.000000 -90.000000 0.000000 -2.309062 0.000000 0.000000 2.309062 0.000000 0.000000 -0.000000 0.000000 0.000000 -0.000000 90.000000 0.000000 -2.309062 0.000000 0.000000 2.309062 0.000000 0.000000 8.520406 0.000000 0.000000 1.905762 0.000000 -0.000000 -4.658285 0.000000 0.000000 -0.000000 0.000000 0.000000 8.520406 0.000000 0.000000 1.905762 0.000000 -0.000000 -4.658285 0.000000 0.000000 -0.000000 0.000000
-97.880022 62.209273 18.621649 174.279605 -49.307300 -0.977566 7.176572 25.846570 1.150823 1.084420 4.312983 0.086167 1.719075 6.882592 0.203894 5.550262 21.033088 1.294582 2.391094 22.892495 -3.370597 5.185522 6.926815 -6.695879 6.944254 9.007793 8.012631 -14.418972 -15.790799 -11.094359 -64.342652 -25.471621 98.664672 -18.639328 -14.573747 -9.430211 -2.782549 10.433640 6.548608 18.501391 -10.091250 1.329856 83.635684 -40.193751 -97.041363 25.437461 -15.581041 -0.546602 2.918115 -17.623544 -4.517665 -2.615266 59.939153 -6.257652 1.628897 -4.931253 10.422651 0.302723 -0.659358 0.119731 -4.965294 -13.817369 2.741621 33.496895 74.829187 36.294798 2.060619 -11.748069 -6.547478 0.283653 0.834849 0.120542
-97.877371 62.208787 18.619669 174.262923 -49.290449 -0.956965 7.164434 25.869846 1.165524 1.091693 4.294238 0.065476 1.711703 6.897188 0.225066 5.540591 21.038341 1.304624 2.281922 22.691847 -3.480512 5.029311 6.554356 -6.875683 6.942938 8.916371 7.987654 -14.281981 -15.589949 -11.189267 -64.938172 -26.593145 99.363154 -18.407873 -14.025120 -9.108124 -2.724932 10.343452 6.576384 18.620793 -10.028558 1.399958 83.797568 -40.798914 -98.007118 25.280062 -15.331813 -1.016097 2.917084 -17.644507 -4.528989 -2.594534 59.946472 -6.240061 1.632711 -4.939823 10.416784 0.296684 -0.655259 0.119130 -4.957002 -13.829134 2.737267 33.487002 74.825767 36.284962 2.055056 -11.755514 -6.545587 0.285631 0.842187 0.117956
-97.873355 62.209387 18.616604 174.259682 -49.281174 -0.948607 7.155987 25.874809 1.169100 1.084256 4.313139 0.080843 1.709941 6.889583 0.233508 5.531673 21.040303 1.317576 2.172748 22.492242 -3.588255 4.872918 6.183591 -7.051387 6.948822 8.816744 7.964442 -14.175837 -15.365239 -11.287456 -65.580940 -27.781760 100.123714 -18.170073 -13.442961 -8.760718 -2.671266 10.253835 6.605464 18.663448 -9.977976 1.459809 84.025843 -41.428781 -98.990709 25.130396 -15.068016 -1.493670 2.914027 -17.658359 -4.542934 -2.585255 59.959031 -6.216481 1.633825 -4.946077 10.397767 0.297122 -0.656290 0.123169 -4.957057 -13.835082 2.733844 33.479996 74.825128 36.280296 2.056161 -11.755034 -6.546112 0.286243 0.842378 0.115793
-97.866679 62.209862 18.613828 174.248406 -49.271486 -0.945142 7.157811 25.876149 1.185410 1.076538 4.324631 0.099265 1.711295 6.883388 0.243337 5.522759 21.040201 1.333398 2.063209 22.291935 -3.692770 4.715314 5.811227 -7.221067 6.953597 8.705963 7.935948 -14.110882 -15.118552 -11.377562 -66.270127 -29.050584 100.939539 -17.910915 -12.826464 -8.381629 -2.623361 10.162484 6.633053 18.664712 -9.926080 1.520356 84.292696 -42.062689 -100.013846 24.999077 -14.812567 -1.956796 2.910991 -17.672286 -4.536691 -2.580358 59.967054 -6.209645 1.637060 -4.949812 10.390781 0.291176 -0.658762 0.124473 -4.955276 -13.840228 2.742389 33.487633 74.825716 36.293977 2.055666 -11.758944 -6.557228 0.290367 0.842671 0.117379
-97.861642 62.208045 18.612864 174.235872 -49.245800 -0.927809 7.151927 25.870757 1.205024 1.068312 4.334576 0.145843 1.709704 6.867317 0.207712 5.513602 21.039689 1.350669 1.953470 22.089316 -3.792929 4.556548 5.434081 -7.382732 6.952510 8.587352 7.900997 -14.077624 -14.858086 -11.450986 -67.018096 -30.410951 101.802844 -17.610767 -12.193893 -7.969728 -2.583118 10.067948 6.660453 18.649828 -9.875172 1.604559 84.563983 -42.660965 -101.066843 24.876427 -14.575932 -2.402729 2.911224 -17.704453 -4.543339 -2.572213 59.977150 -6.206810 1.641594 -4.957784 10.392465 0.286946 -0.656725 0.119794 -4.948177 -13.864708 2.738381 33.483373 74.825550 36.294624 2.062694 -11.759239 -6.562372 0.292465 0.844364 0.115796
-97.857513 62.206437 18.611736 174.229038 -49.224839 -0.906134 7.134861 25.873243 1.257640 1.069147 4.322582 0.110432 1.706870 6.864550 0.188015 5.514389 21.039271 1.396602 1.843242 21.882711 -3.887732 4.396074 5.049048 -7.534586 6.940264 8.531449 7.846877 -14.051783 -14.653527 -11.478968 -67.847557 -31.869256 102.705976 -17.262199 -11.566422 -7.530879 -2.552675 9.966548 6.686975 18.622528 -9.820843 1.717613 84.831977 -43.222303 -102.141249 24.746317 -14.342033 -2.832508 2.911791 -17.731499 -4.564924 -2.563756 59.990322 -6.194894 1.650463 -4.971851 10.384422 0.281044 -0.651677 0.119440 -4.942568 -13.885578 2.724360 33.486078 74.824008 36.302126 2.067515 -11.757396 -6.567924 0.292245 0.845312 0.116627
-97.851729 62.206526 18.609516 174.231305 -49.220901 -0.898778 7.125316 25.875452 1.275795 1.066111 4.324716 0.124446 1.704337 6.861397 0.168603 5.516542 21.042391 1.444391 1.732532 21.671239 -3.977709 4.234065 4.654563 -7.677584 6.925527 8.472777 7.790065 -14.032504 -14.458845 -11.497043 -68.774292 -33.423929 103.645582 -16.865224 -10.948363 -7.072924 -2.531132 9.848651 6.709078 18.588661 -9.756915 1.864470 85.098660 -43.769505 -103.235064 24.592162 -14.102936 -3.211444 2.903474 -17.741295 -4.579508 -2.548982 60.005720 -6.168002 1.646394 -4.981090 10.363782 0.288320 -0.652009 0.123313 -4.946338 -13.888699 2.718164 33.488927 74.824533 36.308417 2.076584 -11.751706 -6.576746 0.297169 0.842761 0.120889
-97.844919 62.206198 18.608010 174.224778 -49.217598 -0.891148 7.126997 25.873912 1.281895 1.064210 4.326960 0.136472 1.702730 6.863002 0.197754 5.510644 21.054287 1.467903 1.621182 21.455596 -4.063731 4.070391 4.252005 -7.813136 6.910322 8.337403 7.736357 -14.022021 -14.220592 -11.532280 -69.798812 -35.063644 104.613890 -16.421750 -10.343795 -6.586828 -2.520073 9.706974 6.726199 18.554627 -9.681316 2.039327 85.369399 -44.332400 -104.342871 24.403022 -13.883434 -3.493252 2.902257 -17.749247 -4.579502 -2.547242 60.015083 -6.166220 1.652037 -4.987862 10.359755 0.284026 -0.653089 0.121866 -4.954685 -13.889833 2.726853 33.479386 74.830831 36.291701 2.078085 -11.751668 -6.585709 0.307472 0.840489 0.124580
-97.839455 62.205696 18.606749 174.208588 -49.216746 -0.869881 7.125859 25.881431 1.307871 1.065275 4.324813 0.118930 1.700209 6.870121 0.227324 5.507891 21.072829 1.495139 1.509201 21.236897 -4.145904 3.904934 3.843416 -7.941555 6.870306 8.084016 7.679462 -13.993068 -13.906639 -11.598453 -70.907276 -36.770099 105.606821 -15.942301 -9.785691 -6.061576 -2.522599 9.539571 6.735807 18.510058 -9.596268 2.233058 85.662640 -44.948814 -105.455311 24.175692 -13.701873 -3.671219 2.906677 -17.755893 -4.588615 -2.540804 60.025582 -6.160392 1.661638 -4.996564 10.355974 0.279258 -0.652101 0.119203 -4.943888 -13.890794 2.719944 33.484152 74.834696 36.300942 2.088253 -11.746654 -6.591297 0.298815 0.837402 0.125644
-97.833572 62.204918 18.606068 174.190627 -49.216649 -0.853149 7.128706 25.895571 1.344663 1.056993 4.353579 0.170912 1.697674 6.876500 0.229035 5.484675 21.075080 1.469002 1.398305 21.016061 -4.223943 3.740486 3.430488 -8.062740 6.818615 7.879194 7.605816 -13.953048 -13.684562 -11.644133 -72.079470 -38.512636 106.636924 -15.434745 -9.305178 -5.513828 -2.539381 9.347363 6.735396 18.437825 -9.505770 2.444609 86.003692 -45.642214 -106.560020 23.912529 -13.545575 -3.783525 2.910076 -17.765135 -4.592270 -2.546474 60.037656 -6.163072 1.679020 -4.995408 10.347892 0.274808 -0.659992 0.117911 -4.941278 -13.889751 2.725025 33.492992 74.837938 36.302964 2.100240 -11.742863 -6.609448 0.307747 0.834855 0.136794
-97.826909 62.204264 18.605692 174.176082 -49.219494 -0.847954 7.124372 25.931681 1.416482 1.060494 4.349095 0.142609 1.698306 6.857812 0.196950 5.491095 21.117964 1.535197 1.290753 20.794091 -4.297139 3.581040 3.015383 -8.175771 6.763347 7.695605 7.526302 -13.919498 -13.529219 -11.685549 -73.319805 -40.262032 107.727475 -14.904291 -8.885768 -4.969749 -2.570921 9.131683 6.726261 18.333114 -9.409261 2.676424 86.399705 -46.408626 -107.647663 23.615025 -13.398698 -3.881083 2.910814 -17.765650 -4.584123 -2.542585 60.039213 -6.159302 1.692597 -4.996149 10.339664 0.261919 -0.661089 0.118554 -4.953361 -13.880787 2.746432 33.483180 74.839652 36.271491 2.115884 -11.748976 -6.630236 0.327926 0.844566 0.152290
-97.823364 62.203088 18.605668 174.164559 -49.219947 -0.831355 7.125854 25.938345 1.416568 1.058454 4.358874 0.154548 1.696127 6.882674 0.227010 5.481567 21.142432 1.551524 1.188758 20.571613 -4.364588 3.430361 2.599472 -8.279666 6.696710 7.500013 7.446535 -13.844088 -13.353245 -11.715834 -74.714946 -42.036549 108.925661 -14.357854 -8.489602 -4.441007 -2.618195 8.894319 6.708136 18.200078 -9.302967 2.932341 86.847054 -47.234902 -108.722208 23.289173 -13.251854 -3.996805 2.912747 -17.768369 -4.590280 -2.534849 60.042291 -6.155987 1.698213 -5.001305 10.336886 0.254426 -0.657400 0.116834 -4.954352 -13.880088 2.744656 33.496949 74.840060 36.276471 2.114583 -11.748036 -6.635748 0.318899 0.843751 0.153058
-97.820473 62.202408 18.605426 174.155801 -49.224737 -0.817321 7.118697 25.966002 1.443394 1.061142 4.353370 0.137125 1.686987 6.961347 0.297735 5.458165 21.120280 1.510043 1.094558 20.349363 -4.424405 3.291719 2.184033 -8.371743 6.620301 7.296699 7.369403 -13.762745 -13.215803 -11.755011 -76.176775 -43.771831 110.169017 -13.790335 -8.091393 -3.928237 -2.681191 8.641757 6.681808 18.046109 -9.187467 3.215307 87.344897 -48.110938 -109.785880 22.945478 -13.093997 -4.144169 2.911898 -17.765278 -4.594271 -2.525501 60.044267 -6.153829 1.699994 -5.007344 10.335786 0.250166 -0.652432 0.115408 -4.952029 -13.875585 2.739413 33.517786 74.839307 36.296182 2.102500 -11.746266 -6.636672 0.308605 0.839270 0.149766
